<mxfile host="app.diagrams.net" modified="2022-11-05T04:27:32.932Z" agent="5.0 (Windows NT 10.0; Win64; x64) AppleWebKit/537.36 (KHTML, like Gecko) Chrome/103.0.0.0 Safari/537.36" etag="oPW-1kzbQNsslKii472X" version="20.5.1" type="github">
  <diagram id="C5RBs43oDa-KdzZeNtuy" name="Page-1">
    <mxGraphModel dx="1008" dy="618" grid="1" gridSize="10" guides="1" tooltips="1" connect="1" arrows="1" fold="1" page="1" pageScale="1" pageWidth="827" pageHeight="1169" math="0" shadow="0">
      <root>
        <mxCell id="WIyWlLk6GJQsqaUBKTNV-0" />
        <mxCell id="WIyWlLk6GJQsqaUBKTNV-1" parent="WIyWlLk6GJQsqaUBKTNV-0" />
        <mxCell id="cxiE2w6JFYi6kN7lGhnq-0" style="edgeStyle=orthogonalEdgeStyle;rounded=0;orthogonalLoop=1;jettySize=auto;html=1;" edge="1" parent="WIyWlLk6GJQsqaUBKTNV-1" source="cxiE2w6JFYi6kN7lGhnq-1" target="cxiE2w6JFYi6kN7lGhnq-3">
          <mxGeometry relative="1" as="geometry" />
        </mxCell>
        <mxCell id="cxiE2w6JFYi6kN7lGhnq-1" value="玩家进入&lt;br&gt;英雄选择界面" style="rounded=1;whiteSpace=wrap;html=1;" vertex="1" parent="WIyWlLk6GJQsqaUBKTNV-1">
          <mxGeometry x="260" y="110" width="100" height="50" as="geometry" />
        </mxCell>
        <mxCell id="cxiE2w6JFYi6kN7lGhnq-3" value="显示15个英雄&lt;br&gt;选择按钮" style="shape=parallelogram;perimeter=parallelogramPerimeter;whiteSpace=wrap;html=1;fixedSize=1;" vertex="1" parent="WIyWlLk6GJQsqaUBKTNV-1">
          <mxGeometry x="250" y="190" width="120" height="60" as="geometry" />
        </mxCell>
        <mxCell id="cxiE2w6JFYi6kN7lGhnq-14" style="edgeStyle=elbowEdgeStyle;rounded=0;orthogonalLoop=1;jettySize=auto;html=1;entryX=0.5;entryY=0;entryDx=0;entryDy=0;" edge="1" parent="WIyWlLk6GJQsqaUBKTNV-1" source="cxiE2w6JFYi6kN7lGhnq-15" target="cxiE2w6JFYi6kN7lGhnq-16">
          <mxGeometry relative="1" as="geometry" />
        </mxCell>
        <mxCell id="cxiE2w6JFYi6kN7lGhnq-15" value="跳转至&lt;br&gt;结算界面" style="rounded=0;whiteSpace=wrap;html=1;fillColor=#dae8fc;strokeColor=#6c8ebf;" vertex="1" parent="WIyWlLk6GJQsqaUBKTNV-1">
          <mxGeometry x="250" y="930" width="120" height="60" as="geometry" />
        </mxCell>
        <mxCell id="cxiE2w6JFYi6kN7lGhnq-16" value="结束" style="rounded=1;whiteSpace=wrap;html=1;fillColor=#dae8fc;strokeColor=#6c8ebf;" vertex="1" parent="WIyWlLk6GJQsqaUBKTNV-1">
          <mxGeometry x="265" y="1020" width="90" height="40" as="geometry" />
        </mxCell>
        <mxCell id="cxiE2w6JFYi6kN7lGhnq-32" value="玩家进入&lt;br&gt;游戏对局界面" style="rounded=1;whiteSpace=wrap;html=1;fillColor=#dae8fc;strokeColor=#6c8ebf;" vertex="1" parent="WIyWlLk6GJQsqaUBKTNV-1">
          <mxGeometry x="260" y="110" width="100" height="50" as="geometry" />
        </mxCell>
        <mxCell id="cxiE2w6JFYi6kN7lGhnq-49" style="edgeStyle=orthogonalEdgeStyle;rounded=0;orthogonalLoop=1;jettySize=auto;html=1;entryX=0.5;entryY=0;entryDx=0;entryDy=0;" edge="1" parent="WIyWlLk6GJQsqaUBKTNV-1" source="cxiE2w6JFYi6kN7lGhnq-33" target="cxiE2w6JFYi6kN7lGhnq-34">
          <mxGeometry relative="1" as="geometry" />
        </mxCell>
        <mxCell id="cxiE2w6JFYi6kN7lGhnq-33" value="显示敌我英雄、&lt;br&gt;限时条、比分等" style="shape=parallelogram;perimeter=parallelogramPerimeter;whiteSpace=wrap;html=1;fixedSize=1;fillColor=#dae8fc;strokeColor=#6c8ebf;" vertex="1" parent="WIyWlLk6GJQsqaUBKTNV-1">
          <mxGeometry x="250" y="190" width="120" height="60" as="geometry" />
        </mxCell>
        <mxCell id="cxiE2w6JFYi6kN7lGhnq-50" style="edgeStyle=orthogonalEdgeStyle;rounded=0;orthogonalLoop=1;jettySize=auto;html=1;entryX=0.5;entryY=0;entryDx=0;entryDy=0;" edge="1" parent="WIyWlLk6GJQsqaUBKTNV-1" source="cxiE2w6JFYi6kN7lGhnq-34" target="cxiE2w6JFYi6kN7lGhnq-38">
          <mxGeometry relative="1" as="geometry" />
        </mxCell>
        <mxCell id="cxiE2w6JFYi6kN7lGhnq-34" value="随机选择电脑&lt;br&gt;可出战英雄" style="rounded=0;whiteSpace=wrap;html=1;" vertex="1" parent="WIyWlLk6GJQsqaUBKTNV-1">
          <mxGeometry x="250" y="290" width="120" height="60" as="geometry" />
        </mxCell>
        <mxCell id="cxiE2w6JFYi6kN7lGhnq-48" style="edgeStyle=orthogonalEdgeStyle;rounded=0;orthogonalLoop=1;jettySize=auto;html=1;entryX=0.5;entryY=0;entryDx=0;entryDy=0;" edge="1" parent="WIyWlLk6GJQsqaUBKTNV-1" source="cxiE2w6JFYi6kN7lGhnq-36" target="cxiE2w6JFYi6kN7lGhnq-44">
          <mxGeometry relative="1" as="geometry">
            <Array as="points">
              <mxPoint x="400" y="640" />
              <mxPoint x="310" y="640" />
            </Array>
          </mxGeometry>
        </mxCell>
        <mxCell id="cxiE2w6JFYi6kN7lGhnq-36" value="玩家选择&lt;br&gt;出战英雄" style="shape=parallelogram;perimeter=parallelogramPerimeter;whiteSpace=wrap;html=1;fixedSize=1;" vertex="1" parent="WIyWlLk6GJQsqaUBKTNV-1">
          <mxGeometry x="340" y="490" width="120" height="50" as="geometry" />
        </mxCell>
        <mxCell id="cxiE2w6JFYi6kN7lGhnq-45" style="edgeStyle=orthogonalEdgeStyle;rounded=0;orthogonalLoop=1;jettySize=auto;html=1;entryX=0.5;entryY=0;entryDx=0;entryDy=0;" edge="1" parent="WIyWlLk6GJQsqaUBKTNV-1" source="cxiE2w6JFYi6kN7lGhnq-37" target="cxiE2w6JFYi6kN7lGhnq-44">
          <mxGeometry relative="1" as="geometry">
            <Array as="points">
              <mxPoint x="220" y="640" />
              <mxPoint x="310" y="640" />
            </Array>
          </mxGeometry>
        </mxCell>
        <mxCell id="cxiE2w6JFYi6kN7lGhnq-37" value="随机选择&lt;br&gt;玩家英雄" style="rounded=0;whiteSpace=wrap;html=1;" vertex="1" parent="WIyWlLk6GJQsqaUBKTNV-1">
          <mxGeometry x="160" y="560" width="120" height="60" as="geometry" />
        </mxCell>
        <mxCell id="cxiE2w6JFYi6kN7lGhnq-41" style="edgeStyle=orthogonalEdgeStyle;rounded=0;orthogonalLoop=1;jettySize=auto;html=1;entryX=0.5;entryY=0;entryDx=0;entryDy=0;" edge="1" parent="WIyWlLk6GJQsqaUBKTNV-1" source="cxiE2w6JFYi6kN7lGhnq-38" target="cxiE2w6JFYi6kN7lGhnq-40">
          <mxGeometry relative="1" as="geometry">
            <Array as="points">
              <mxPoint x="310" y="460" />
              <mxPoint x="220" y="460" />
            </Array>
          </mxGeometry>
        </mxCell>
        <mxCell id="cxiE2w6JFYi6kN7lGhnq-42" style="edgeStyle=orthogonalEdgeStyle;rounded=0;orthogonalLoop=1;jettySize=auto;html=1;entryX=0.5;entryY=0;entryDx=0;entryDy=0;" edge="1" parent="WIyWlLk6GJQsqaUBKTNV-1" source="cxiE2w6JFYi6kN7lGhnq-38" target="cxiE2w6JFYi6kN7lGhnq-36">
          <mxGeometry relative="1" as="geometry">
            <Array as="points">
              <mxPoint x="310" y="460" />
              <mxPoint x="400" y="460" />
            </Array>
          </mxGeometry>
        </mxCell>
        <mxCell id="cxiE2w6JFYi6kN7lGhnq-38" value="开启十秒玩家&lt;br&gt;选择英雄限时" style="rounded=0;whiteSpace=wrap;html=1;" vertex="1" parent="WIyWlLk6GJQsqaUBKTNV-1">
          <mxGeometry x="250" y="380" width="120" height="60" as="geometry" />
        </mxCell>
        <mxCell id="cxiE2w6JFYi6kN7lGhnq-43" style="edgeStyle=orthogonalEdgeStyle;rounded=0;orthogonalLoop=1;jettySize=auto;html=1;exitX=0.5;exitY=1;exitDx=0;exitDy=0;entryX=0.5;entryY=0;entryDx=0;entryDy=0;" edge="1" parent="WIyWlLk6GJQsqaUBKTNV-1" source="cxiE2w6JFYi6kN7lGhnq-40">
          <mxGeometry relative="1" as="geometry">
            <mxPoint x="220" y="560" as="targetPoint" />
          </mxGeometry>
        </mxCell>
        <mxCell id="cxiE2w6JFYi6kN7lGhnq-40" value="超过十秒限时" style="shape=parallelogram;perimeter=parallelogramPerimeter;whiteSpace=wrap;html=1;fixedSize=1;" vertex="1" parent="WIyWlLk6GJQsqaUBKTNV-1">
          <mxGeometry x="160" y="490" width="120" height="40" as="geometry" />
        </mxCell>
        <mxCell id="cxiE2w6JFYi6kN7lGhnq-55" style="edgeStyle=orthogonalEdgeStyle;rounded=0;orthogonalLoop=1;jettySize=auto;html=1;entryX=0.5;entryY=0;entryDx=0;entryDy=0;" edge="1" parent="WIyWlLk6GJQsqaUBKTNV-1" source="cxiE2w6JFYi6kN7lGhnq-44" target="cxiE2w6JFYi6kN7lGhnq-51">
          <mxGeometry relative="1" as="geometry" />
        </mxCell>
        <mxCell id="cxiE2w6JFYi6kN7lGhnq-44" value="双方英雄&lt;br&gt;随机出招" style="rounded=0;whiteSpace=wrap;html=1;" vertex="1" parent="WIyWlLk6GJQsqaUBKTNV-1">
          <mxGeometry x="250" y="660" width="120" height="60" as="geometry" />
        </mxCell>
        <mxCell id="cxiE2w6JFYi6kN7lGhnq-56" style="edgeStyle=orthogonalEdgeStyle;rounded=0;orthogonalLoop=1;jettySize=auto;html=1;entryX=0.5;entryY=0;entryDx=0;entryDy=0;" edge="1" parent="WIyWlLk6GJQsqaUBKTNV-1" source="cxiE2w6JFYi6kN7lGhnq-51" target="cxiE2w6JFYi6kN7lGhnq-54">
          <mxGeometry relative="1" as="geometry" />
        </mxCell>
        <mxCell id="cxiE2w6JFYi6kN7lGhnq-51" value="计算胜负&lt;br&gt;记录数据&lt;br&gt;修改显示内容" style="rounded=0;whiteSpace=wrap;html=1;fillColor=#dae8fc;strokeColor=#6c8ebf;" vertex="1" parent="WIyWlLk6GJQsqaUBKTNV-1">
          <mxGeometry x="250" y="750" width="120" height="60" as="geometry" />
        </mxCell>
        <mxCell id="cxiE2w6JFYi6kN7lGhnq-57" style="edgeStyle=orthogonalEdgeStyle;rounded=0;orthogonalLoop=1;jettySize=auto;html=1;entryX=0.5;entryY=0;entryDx=0;entryDy=0;" edge="1" parent="WIyWlLk6GJQsqaUBKTNV-1" source="cxiE2w6JFYi6kN7lGhnq-54" target="cxiE2w6JFYi6kN7lGhnq-15">
          <mxGeometry relative="1" as="geometry" />
        </mxCell>
        <mxCell id="cxiE2w6JFYi6kN7lGhnq-59" style="edgeStyle=elbowEdgeStyle;rounded=0;orthogonalLoop=1;jettySize=auto;html=1;" edge="1" parent="WIyWlLk6GJQsqaUBKTNV-1" source="cxiE2w6JFYi6kN7lGhnq-54">
          <mxGeometry relative="1" as="geometry">
            <mxPoint x="310" y="268.66668701171875" as="targetPoint" />
            <Array as="points">
              <mxPoint x="490" y="490" />
              <mxPoint x="510" y="490" />
            </Array>
          </mxGeometry>
        </mxCell>
        <mxCell id="cxiE2w6JFYi6kN7lGhnq-54" value="是否满九轮" style="rhombus;whiteSpace=wrap;html=1;fillColor=#dae8fc;strokeColor=#6c8ebf;" vertex="1" parent="WIyWlLk6GJQsqaUBKTNV-1">
          <mxGeometry x="250" y="840" width="120" height="60" as="geometry" />
        </mxCell>
        <mxCell id="cxiE2w6JFYi6kN7lGhnq-69" value="否" style="edgeLabel;resizable=0;html=1;align=center;verticalAlign=middle;" connectable="0" vertex="1" parent="WIyWlLk6GJQsqaUBKTNV-1">
          <mxGeometry x="400" y="870" as="geometry" />
        </mxCell>
        <mxCell id="cxiE2w6JFYi6kN7lGhnq-70" value="随机选择电脑&lt;br&gt;可出战英雄" style="rounded=0;whiteSpace=wrap;html=1;fillColor=#dae8fc;strokeColor=#6c8ebf;" vertex="1" parent="WIyWlLk6GJQsqaUBKTNV-1">
          <mxGeometry x="250" y="290" width="120" height="60" as="geometry" />
        </mxCell>
        <mxCell id="cxiE2w6JFYi6kN7lGhnq-71" value="开启十秒玩家&lt;br&gt;选择英雄限时" style="rounded=0;whiteSpace=wrap;html=1;fillColor=#dae8fc;strokeColor=#6c8ebf;" vertex="1" parent="WIyWlLk6GJQsqaUBKTNV-1">
          <mxGeometry x="250" y="380" width="120" height="60" as="geometry" />
        </mxCell>
        <mxCell id="cxiE2w6JFYi6kN7lGhnq-72" value="超过十秒限时" style="shape=parallelogram;perimeter=parallelogramPerimeter;whiteSpace=wrap;html=1;fixedSize=1;fillColor=#dae8fc;strokeColor=#6c8ebf;" vertex="1" parent="WIyWlLk6GJQsqaUBKTNV-1">
          <mxGeometry x="160" y="490" width="120" height="40" as="geometry" />
        </mxCell>
        <mxCell id="cxiE2w6JFYi6kN7lGhnq-73" value="随机选择&lt;br&gt;玩家英雄" style="rounded=0;whiteSpace=wrap;html=1;fillColor=#dae8fc;strokeColor=#6c8ebf;" vertex="1" parent="WIyWlLk6GJQsqaUBKTNV-1">
          <mxGeometry x="160" y="560" width="120" height="60" as="geometry" />
        </mxCell>
        <mxCell id="cxiE2w6JFYi6kN7lGhnq-74" value="玩家选择&lt;br&gt;出战英雄" style="shape=parallelogram;perimeter=parallelogramPerimeter;whiteSpace=wrap;html=1;fixedSize=1;fillColor=#dae8fc;strokeColor=#6c8ebf;" vertex="1" parent="WIyWlLk6GJQsqaUBKTNV-1">
          <mxGeometry x="340" y="490" width="120" height="50" as="geometry" />
        </mxCell>
        <mxCell id="cxiE2w6JFYi6kN7lGhnq-75" value="双方英雄&lt;br&gt;随机出招" style="rounded=0;whiteSpace=wrap;html=1;fillColor=#dae8fc;strokeColor=#6c8ebf;" vertex="1" parent="WIyWlLk6GJQsqaUBKTNV-1">
          <mxGeometry x="250" y="660" width="120" height="60" as="geometry" />
        </mxCell>
        <mxCell id="cxiE2w6JFYi6kN7lGhnq-79" value="是" style="edgeLabel;resizable=0;html=1;align=center;verticalAlign=middle;" connectable="0" vertex="1" parent="WIyWlLk6GJQsqaUBKTNV-1">
          <mxGeometry x="310" y="910" as="geometry" />
        </mxCell>
      </root>
    </mxGraphModel>
  </diagram>
</mxfile>
